<?xml version="1.0" encoding="UTF-8"?>
<svg id="Layer_1" data-name="Layer 1" xmlns="http://www.w3.org/2000/svg" viewBox="0 0 3479.8 649.56">
  <defs>
    <style>
      .cls-1 {
        fill: #2966f4;
        stroke-width: 0px;
      }
    </style>
  </defs>
  <path class="cls-1" d="M324.77,0C145.4,0,0,145.4,0,324.77s145.4,324.79,324.77,324.79,324.77-145.43,324.77-324.79S504.14,0,324.77,0ZM308.54,88.58c9.35-4.06,23.53-3.95,32.83.28,15.98,7.2,16.26,23.28,14.29,39.48-2.75,23.11-5.13,46.25-6.63,69.9-.07,1.2-1.41,1.85-2.4,1.15-6.47-4.46-14.32-7.09-22.77-7.09-7.37,0-14.27,1.99-20.2,5.47-1.09.62-2.45-.07-2.56-1.29-2.26-22.91-4.57-45.79-7.3-68.63-1.94-16.35-1.29-32.28,14.73-39.28ZM312.09,357.42c-4.11,31.45-10.32,62.67-17.04,93.68-3.51,16.23-18.22,23.92-33.23,19.67-14.59-4.11-22.38-18.7-17.32-34.47,4.11-12.88,9.54-25.35,16.56-43.73-32.72,23.71-60.43,43.78-88.14,63.85-6.17,4.43-12.1,9.21-18.5,13.28-17.69,11.25-37.38,7.62-47.04-8.41-10.14-16.81-3.72-37.36,15.84-46.46,32.53-15.17,65.51-29.3,98.25-43.96,5.45-2.42,10.67-5.33,20.99-10.55-19.1-2.66-32.17-3.93-44.98-6.44-16.3-3.21-25.03-16.56-21.98-31.89,2.96-14.89,17.41-24.8,33.02-19.86,30.9,9.74,61.68,20.23,91.58,32.65,6.3,2.63,12.93,15.47,11.98,22.65ZM310.11,311.52c-24.34-18.03-46.92-38.52-69.48-58.86-13.67-12.35-14.06-28.56-2.56-40.09,11.71-11.73,28.79-10.02,41.42,4.41.92,1.04,1.8,2.1,2.68,3.19,1.55,1.92,2.31,4.36,1.96,6.81-.23,1.78-.37,3.58-.37,5.43,0,24.31,21.66,43.57,46.76,39.55,19.72-3.19,33.99-20.85,33.41-40.8-.02-.81-.07-1.59-.14-2.36-.21-2.38.44-4.71,1.94-6.56,1.5-1.82,3.02-3.65,4.57-5.45,11.94-13.88,28.08-15.79,39.92-5.33,12.82,11.36,12.75,28.42-1.71,41.47-22.54,20.37-45.1,40.89-69.46,58.88-6.42,4.76-22.42,4.53-28.96-.3ZM542.86,460.17c-9.72,17.57-30.87,21.27-50.01,7.78-27.64-19.47-54.82-39.62-82.25-59.46-5.54-4.02-11.25-7.83-21.82-15.15,6.37,16.58,11.2,28.12,15.29,39.97,6.03,17.29-.44,32.49-15.24,37.15-16.6,5.22-30.94-3.28-34.98-22.31-6.14-29.02-11.22-58.28-16.76-87.44-2.75-14.43,2.31-23.78,16.76-28.59,27.5-9.17,54.61-19.37,82.11-28.49,18.7-6.19,34.04,1.2,37.91,17.13,4.2,17.2-6.35,30.62-26.69,33.9-6.14.99-12.28,1.94-18.43,2.82-5.38.76-10.76,1.36-16.14,2.03-.12,1.36-.23,2.75-.35,4.11,33.23,14.89,66.46,29.81,99.68,44.7,4.41,1.96,8.98,3.63,13.3,5.77,19.65,9.81,26.99,29.09,17.62,46.07Z"/>
  <g>
    <path class="cls-1" d="M837.87,536.25c-33.35-21.03-59.19-50.12-77.54-87.27-18.36-37.14-27.52-79.21-27.52-126.21s9.17-89.73,27.52-126.88c18.35-37.14,44.41-66.12,78.21-86.93,33.79-20.81,73.06-31.22,117.82-31.22,51.91,0,94.87,13.66,128.89,40.95,34.01,27.3,53.93,64.68,59.75,112.11h-60.42c-4.93-29.98-19.13-53.59-42.63-70.82-23.5-17.22-52.48-25.84-86.94-25.84-32.67,0-60.98,8.05-84.92,24.17-23.94,16.11-42.4,38.38-55.38,66.79-12.99,28.43-19.47,60.98-19.47,97.68s6.59,69.26,19.81,97.68c13.19,28.43,31.99,50.58,56.39,66.46,24.39,15.89,52.47,23.83,84.25,23.83,38.49,0,69.82-11.41,93.98-34.24,24.17-22.83,37.6-54.15,40.28-93.98h61.09c-.9,37.59-9.85,70.38-26.86,98.35-17.01,27.97-40.39,49.46-70.15,64.45-29.77,14.99-63.22,22.49-100.36,22.49-43.87,0-82.47-10.52-115.8-31.55Z"/>
    <path class="cls-1" d="M1232.26,160.31c-16.56,0-29.2-4.92-37.93-14.77-8.73-9.84-13.09-23.26-13.09-40.28v-16.78h45.65c4.92,0,9.28,1.79,13.09,5.37,3.8,3.59,5.71,7.84,5.71,12.75l-.68,53.71h-12.75ZM1243.01,561.09h-58.41V214.69h58.41v346.4Z"/>
    <path class="cls-1" d="M1270.53,559.74V213.35h36.25c7.15,0,12.42,4.93,15.78,14.77,3.35,9.85,5.26,21.04,5.71,33.57,9.84-17.01,23.49-29.87,40.95-38.6,17.45-8.73,35.35-13.09,53.7-13.09,11.63,0,22.59,2.01,32.9,6.04v51.69c-10.74-1.78-21.72-2.68-32.9-2.68-29.99.45-53.03,9.18-69.15,26.18-16.11,17.01-24.17,42.96-24.17,77.87v190.65h-59.07Z"/>
    <path class="cls-1" d="M1540.73,542.96c-25.74-16.11-45.76-38.15-60.08-66.12-14.33-27.96-21.48-58.96-21.48-92.98s7.15-65.89,21.48-92.98c14.32-27.07,34.24-48.22,59.75-63.44,25.51-15.21,54.6-22.82,87.27-22.82,42.06,0,76.53,11.53,103.38,34.57,26.85,23.06,42.73,54.71,47.66,94.99l-59.75-.68c-2.68-23.72-12.2-42.51-28.53-56.39-16.34-13.86-37.26-20.81-62.77-20.81-33.57,0-60.2,11.53-79.89,34.57-19.7,23.06-29.54,54.04-29.54,92.98,0,25.51,4.59,48.12,13.77,67.81,9.17,19.7,22.04,35.13,38.6,46.32,16.55,11.19,35.58,16.78,57.06,16.78,51.91-.44,82.12-23.5,90.62-69.15,3.13-12.52,10.29-18.8,21.48-18.8h38.27c-2.24,44.31-16.56,78.77-42.96,103.38-26.41,24.62-62.21,36.92-107.41,36.92-32.23,0-61.21-8.05-86.94-24.17Z"/>
    <path class="cls-1" d="M1867.31,562.43h-58.4V84.45h58.4v477.98Z"/>
    <path class="cls-1" d="M1979.76,547.66c-25.75-16.11-45.88-38.15-60.42-66.12-14.54-27.96-21.81-59.18-21.81-93.65s7.15-66.34,21.48-94.32c14.32-27.96,34.12-49.9,59.41-65.79,25.28-15.88,53.81-23.83,85.59-23.83,34.46,0,64,8.62,88.61,25.84,24.61,17.23,43.07,41.18,55.38,71.83,12.31,30.66,18.01,65.9,17.12,105.73h-267.85c3.13,33.12,14.87,59.98,35.24,80.56,20.36,20.59,45.75,30.88,76.19,30.88,21.92,0,40.38-5.14,55.38-15.44,14.99-10.29,26.07-24.39,33.23-42.3,4.02-9.84,10.51-15.21,19.47-16.11l42.96-.68c-7.17,40.28-24.06,71.61-50.69,93.99-26.63,22.37-60.76,33.56-102.38,33.56-32.22,0-61.2-8.05-86.93-24.17ZM2164.03,355.67c-3.59-31.32-14.22-55.72-31.89-73.18-17.69-17.45-40.39-26.18-68.14-26.18s-51.13,8.96-70.15,26.86c-19.03,17.9-30.77,42.07-35.24,72.5h205.43Z"/>
    <path class="cls-1" d="M2315.07,558.4h-59.75V88.48h65.12l213.48,323.57,30.21,52.36V88.48h59.75v469.92h-63.1l-214.82-324.92-30.88-50.35v375.27Z"/>
    <path class="cls-1" d="M2736.32,547.66c-25.75-16.11-45.88-38.15-60.42-66.12-14.54-27.96-21.81-59.18-21.81-93.65s7.15-66.34,21.48-94.32c14.32-27.96,34.12-49.9,59.41-65.79,25.28-15.88,53.81-23.83,85.59-23.83,34.46,0,64,8.62,88.61,25.84,24.61,17.23,43.07,41.18,55.38,71.83,12.31,30.66,18.01,65.9,17.12,105.73h-267.85c3.13,33.12,14.87,59.98,35.24,80.56,20.36,20.59,45.75,30.88,76.19,30.88,21.92,0,40.38-5.14,55.38-15.44,14.99-10.29,26.07-24.39,33.23-42.3,4.02-9.84,10.51-15.21,19.47-16.11l42.96-.68c-7.17,40.28-24.06,71.61-50.69,93.99-26.63,22.37-60.76,33.56-102.38,33.56-32.22,0-61.2-8.05-86.93-24.17ZM2920.6,355.67c-3.59-31.32-14.22-55.72-31.89-73.18-17.69-17.45-40.39-26.18-68.14-26.18s-51.13,8.96-70.15,26.86c-19.03,17.9-30.77,42.07-35.24,72.5h205.43Z"/>
    <path class="cls-1" d="M3059.56,542.96c-25.96-18.79-41.85-45.65-47.66-80.56h21.48c25.95,0,40.28,3.59,42.96,10.74,12.97,29.54,42.29,44.31,87.94,44.31,23.26,0,41.84-4.47,55.72-13.43,13.87-8.95,20.81-21.48,20.81-37.59,0-12.08-4.14-22.04-12.42-29.87-8.29-7.83-18.46-13.87-30.54-18.13-12.08-4.25-28.87-9.28-50.35-15.11-26.41-6.71-47.89-13.31-64.45-19.8-16.56-6.49-30.54-16.11-41.96-28.87-11.41-12.76-17.12-29.65-17.12-50.69,0-29.98,11.18-53.59,33.57-70.82,22.37-17.22,53.25-25.84,92.64-25.84,37.14,0,67.02,8.39,89.62,25.17,22.59,16.78,37.03,40.85,43.3,72.16l-61.76-2.01c-4.03-15.21-11.87-26.29-23.5-33.23-11.64-6.93-27.76-10.4-48.33-10.4s-36.92,3.81-49,11.41c-12.08,7.62-18.13,18.58-18.13,32.9s7.16,25.74,21.48,32.9c14.32,7.16,36.47,14.77,66.46,22.82,28.19,7.62,50.68,14.77,67.46,21.48,16.78,6.71,31.32,16.78,43.63,30.21,12.31,13.42,18.46,31.33,18.46,53.7,0,33.12-11.97,59.19-35.91,78.21-23.95,19.02-57.4,28.53-100.36,28.53s-78.1-9.4-104.05-28.2Z"/>
    <path class="cls-1" d="M3356.28,263.69h-19.47c-17.9,0-26.85-11.18-26.85-33.56v-21.48h46.32v-122.85h60.42v122.85h61.76v55.04h-61.76v226.23c0,6.27,1.11,10.64,3.35,13.09,2.24,2.47,6.71,3.69,13.43,3.69,16.11,0,27.86,1.24,35.24,3.69,7.38,2.47,11.08,8.63,11.08,18.47v28.19c-17.01,3.13-32.9,4.7-47.66,4.7-25.51,0-44.54-5.48-57.06-16.45-12.54-10.96-18.8-28.53-18.8-52.7v-228.92Z"/>
  </g>
</svg>